<?xml version="1.0" encoding="UTF-8"?>
<svg id="Layer_2" xmlns="http://www.w3.org/2000/svg" xmlns:xlink="http://www.w3.org/1999/xlink" version="1.1" viewBox="0 0 55 69.59">
  <!-- Generator: Adobe Illustrator 30.0.0, SVG Export Plug-In . SVG Version: 2.1.1 Build 123)  -->
  <defs>
    <radialGradient id="radial-gradient" cx="10705.312" cy="-4074.252" fx="10705.312" fy="-4074.252" r="264.062" gradientTransform="translate(-463.327 -156.402) scale(.045 -.045)" gradientUnits="userSpaceOnUse">
      <stop offset="0" stop-color="#007bc1"/>
      <stop offset="1" stop-color="#05466b"/>
    </radialGradient>
    <radialGradient id="radial-gradient1" cx="11244.39" cy="-3631.24" fx="11244.39" fy="-3631.24" r="265.414" gradientTransform="translate(-435.3 -117.78) scale(.041 -.041)" xlink:href="#radial-gradient"/>
  </defs>
  <g id="Layer_x5F_1">
    <g id="_2513018456736">
      <g>
        <path d="M27.431,68.497c-.246,0-.492-.02-.734-.06-.562-.093-1.048-.266-1.569-.483-.046-.019-.093-.04-.139-.057-1.361-.52-2.606-1.204-3.874-1.912l-.486-.272c-1.348-.753-2.66-1.578-3.913-2.48-4.385-3.156-8.073-7.321-10.625-12.087-3.056-5.707-4.497-12.046-4.758-18.488-.173-4.272.089-8.631,1.024-12.813-.043-3.256.131-6.743.179-10.594.121-9.804,50.305-9.742,50.197-.239-.045,3.906-.002,8.098.016,11.922.895,4.72,1.076,9.555.634,14.338-.574,6.202-2.304,12.223-5.552,17.567-2.89,4.756-6.96,8.783-11.663,11.744-1.288.811-2.603,1.587-3.958,2.283-.796.408-1.616.772-2.454,1.086-.024.009-.048.019-.071.029-.747.31-1.433.516-2.254.516h0Z" fill="#fefefe" fill-rule="evenodd"/>
        <path d="M27.431,68.516c-.248,0-.496-.02-.737-.06-.596-.098-1.108-.291-1.573-.485l-.038-.016c-.033-.014-.067-.028-.1-.041-1.324-.506-2.539-1.166-3.876-1.913l-.486-.272c-1.387-.775-2.704-1.609-3.915-2.481-4.423-3.184-8.099-7.366-10.631-12.093-2.88-5.378-4.481-11.601-4.76-18.496-.187-4.626.157-8.939,1.025-12.818-.027-1.977.027-4.042.085-6.227.037-1.404.075-2.856.094-4.363.029-2.358,2.945-4.314,8.432-5.656,4.784-1.17,11.384-1.796,18.105-1.716,6.314.075,12.137.747,16.397,1.893,4.802,1.291,7.327,3.103,7.302,5.241-.035,3.097-.016,6.355.002,9.506.005.817.009,1.624.013,2.416.874,4.609,1.088,9.434.634,14.339-.611,6.602-2.479,12.515-5.554,17.576-2.835,4.666-6.87,8.73-11.669,11.75-1.455.916-2.75,1.663-3.959,2.283-.799.41-1.625.775-2.456,1.087-.017.006-.035.014-.052.021l-.018.008c-.647.269-1.369.518-2.261.518ZM27.884,1.911C15.153,1.911,2.615,4.38,2.555,9.252c-.019,1.508-.057,2.96-.094,4.364-.057,2.185-.111,4.249-.085,6.23-.867,3.88-1.211,8.19-1.024,12.812.279,6.889,1.879,13.107,4.756,18.479,2.529,4.722,6.201,8.899,10.619,12.08,1.209.871,2.525,1.704,3.911,2.478l.486.272c1.336.747,2.55,1.405,3.871,1.911.034.013.068.027.102.042l.038.016c.463.193.973.384,1.565.482.239.039.484.059.731.059.886,0,1.603-.247,2.246-.515l.018-.008c.018-.008.036-.015.054-.022.83-.311,1.655-.676,2.452-1.085,1.208-.62,2.502-1.366,3.956-2.282,4.794-3.017,8.825-7.076,11.657-11.737,3.072-5.055,4.939-10.963,5.549-17.559.453-4.902.24-9.724-.634-14.332-.004-.795-.009-1.602-.014-2.419-.019-3.151-.038-6.409-.002-9.507.024-2.117-2.491-3.916-7.274-5.203-4.256-1.145-10.076-1.816-16.387-1.891-.389-.005-.779-.007-1.168-.007Z" fill="#fefefe"/>
      </g>
      <path d="M8.084,6.216v7.776c-.515.177-.771.269-1.282.459-.718-1.334-1.074-1.994-1.784-3.305v3.999c-.537.219-.804.332-1.337.565v-7.776c.502-.219.754-.326,1.26-.533.71,1.305,1.067,1.963,1.783,3.291v-3.988c.542-.202.815-.3,1.361-.488h0Z" fill="#05466b"/>
      <path d="M12.097,10.798v-3.899c-.702.188-1.053.287-1.75.497v3.899c.697-.21,1.048-.309,1.75-.498h0ZM12.761,4.837c.176.029.312.086.408.17.096.084.165.187.208.31.043.123.07.261.08.414.011.153.016.315.016.485,0,.044.001.087.004.127.003.04.003.084.004.127.003.1.008.224.008.365v3.632c0,.208-.002.404-.008.591-.006.187-.032.363-.08.53-.048.167-.124.327-.228.479-.104.152-.252.296-.444.434-.048.027-.141.064-.279.111-.138.047-.284.093-.438.138-.154.045-.298.087-.43.123-.133.037-.218.06-.255.071-.947.267-1.418.411-2.355.718v-7.776c.657-.215.987-.318,1.649-.514.116-.034.233-.07.349-.108.116-.037.235-.073.357-.107.037-.011.123-.035.259-.072.135-.037.281-.075.437-.114.157-.038.306-.071.447-.096.141-.026.235-.037.283-.034.003-.001.005-.002.008-.002h0Z" fill="#05466b"/>
      <path d="M23.409,3.073v7.776c-.571.04-.856.063-1.425.117v-3.888c-.131.301-.264.603-.398.905-.134.302-.261.594-.381.873-.42.045-.629.07-1.049.122-.311-.645-.466-.967-.776-1.608v3.899c-.567.079-.851.121-1.416.214V3.706c.538-.088.808-.129,1.349-.204.547,1.137.82,1.708,1.368,2.857.551-1.277.828-1.912,1.38-3.177.539-.05.809-.072,1.349-.11h0Z" fill="#05466b"/>
      <path d="M27.573,8.812v-3.921c-.722,0-1.084.006-1.806.029v3.921c.722-.022,1.084-.028,1.806-.029ZM29.002,9.061v.361c0,.115-.012.226-.037.332-.024.107-.063.216-.114.326-.051.11-.126.219-.224.329-.174.182-.344.286-.51.31-.166.024-.334.029-.494.026-.033,0-.066-.002-.1-.006-.033-.004-.066-.005-.099-.005-.094,0-.187.002-.281.007-.094.004-.187.007-.28.008-.416.005-.624.01-1.04.022-.108.003-.215.003-.318,0-.103-.004-.207-.015-.31-.033-.244-.042-.449-.175-.612-.4-.163-.225-.244-.507-.244-.848v-4.677c0-.133.003-.261.008-.384.006-.123.021-.24.045-.352.025-.113.064-.226.118-.339.055-.114.133-.229.237-.345.185-.201.356-.32.514-.356.158-.036.326-.053.506-.051.578-.018.867-.023,1.445-.027.153-.001.309-.002.468-.001.158,0,.315.019.468.058.24.06.443.211.608.447.164.236.247.522.247.855v4.743h0Z" fill="#05466b"/>
      <path d="M34.549,9.178v1.933c-1.859-.215-2.792-.287-4.66-.357v-1.788c1.064-1.582,1.595-2.361,2.657-3.896-1.062-.087-1.593-.119-2.657-.159v-1.933c1.868.07,2.802.141,4.66.357v1.781c-1.059,1.502-1.589,2.265-2.651,3.815,1.062.075,1.592.125,2.651.248Z" fill="#05466b"/>
      <path d="M36.828,3.643v7.776c-.566-.087-.85-.128-1.417-.202,0-3.11,0-4.666,0-7.776.568.074.851.115,1.417.203Z" fill="#05466b"/>
      <path d="M40.732,7.647v-1.355c-.663-.148-.996-.218-1.663-.347v1.355c.666.129.999.199,1.663.347ZM42.154,6.806c0,.089.001.178.004.268.003.09.004.175.004.256,0,.074.001.147.004.217.002.071.004.14.004.207,0,.163-.002.323-.008.481-.006.158-.011.324-.024.488-.017.206-.066.382-.132.517-.067.135-.165.25-.293.345-.085.061-.167.095-.245.102-.077.008-.16.005-.245-.007.415,1.123.622,1.686,1.035,2.816-.638-.16-.959-.236-1.6-.379-.413-1.114-.621-1.669-1.036-2.775-.22-.045-.33-.067-.551-.11v2.555c-.563-.109-.845-.16-1.41-.256V3.756c1.396.236,2.091.375,3.474.694.145.033.279.1.402.2.123.1.23.225.321.377.091.152.163.321.216.509s.08.381.08.581v.689h0Z" fill="#05466b"/>
      <path d="M44.252,10.369v.733c.385.111.577.168.96.286v-5.843c.551.169.826.257,1.374.44v6.11c.005.246-.011.474-.047.684-.036.21-.145.397-.322.538-.144.114-.308.163-.468.149-.16-.014-.314-.051-.461-.111-.026-.008-.058-.02-.095-.035-.037-.015-.069-.026-.095-.034-.446-.136-.669-.201-1.117-.328-.281-.079-.499-.198-.652-.359-.154-.16-.265-.349-.335-.567-.069-.219-.107-.458-.116-.719-.008-.261-.012-.533-.012-.814v-.511c.556.146.834.222,1.387.382Z" fill="#05466b"/>
      <path d="M51.576,13.766v1.933c-1.638-.716-2.469-1.041-4.145-1.628v-7.776c1.676.588,2.506.913,4.145,1.628v1.933c-1.105-.482-1.663-.709-2.787-1.134v.989c.921.348,1.379.532,2.288.919v1.933c-.909-.387-1.367-.571-2.288-.919v.989c1.124.424,1.682.651,2.787,1.134h0Z" fill="#05466b"/>
      <path d="M27.43,67.43c-.198,0-.397-.016-.59-.048-.578-.095-1.037-.287-1.373-.427-.069-.029-.116-.049-.163-.067-1.387-.53-2.592-1.205-3.759-1.858l-.486-.272c-1.334-.742-2.623-1.558-3.828-2.425-4.312-3.104-7.895-7.179-10.362-11.786-2.814-5.256-4.381-11.348-4.654-18.106-.192-4.731.181-9.118,1.109-13.041.155-.654.406-1.118.865-1.603.521-.549,1.105-.928,1.531-1.204l.113-.073c.963-.628,2.054-1.183,3.33-1.694,2.314-.927,4.874-1.594,8.057-2.099,3.29-.522,6.702-.786,10.141-.786,2.736,0,5.511.168,8.246.499,3.203.388,5.955.967,8.412,1.77,1.974.645,4.507,1.625,6.593,3.497.938.841.835,1.116,1.09,2.33,1.005,4.796,1.273,9.833.798,14.973-.598,6.464-2.424,12.248-5.427,17.19-2.763,4.548-6.698,8.509-11.378,11.455-1.432.902-2.705,1.636-3.89,2.244-.764.392-1.558.744-2.361,1.045-.033.012-.067.027-.101.041-.413.171-1.081.449-1.914.449h0Z" fill="#007943"/>
      <path d="M27.43,65.448c-.092,0-.182-.007-.27-.022-.346-.058-.656-.187-.93-.301-.074-.031-.146-.061-.216-.088-1.254-.48-2.397-1.119-3.501-1.738l-.487-.272c-1.271-.706-2.494-1.481-3.635-2.303-4.068-2.928-7.448-6.771-9.773-11.114-2.672-4.99-4.16-10.794-4.421-17.25-.184-4.551.172-8.758,1.057-12.505.073-.31.158-.466.376-.696.358-.378.789-.657,1.17-.904l.115-.074c.857-.558,1.834-1.054,2.988-1.517,2.173-.871,4.597-1.5,7.631-1.981,3.187-.505,6.494-.761,9.83-.761,2.657,0,5.352.163,8.008.485,3.074.372,5.702.924,8.034,1.686,1.789.585,4.075,1.464,5.886,3.088l.226.202.074.294c.064.254.12.51.174.767.964,4.601,1.221,9.44.764,14.382-.57,6.162-2.302,11.66-5.147,16.343-2.605,4.286-6.319,8.023-10.74,10.807-1.382.87-2.605,1.576-3.739,2.157-.698.358-1.422.679-2.153.952-.056.021-.116.046-.178.072-.313.13-.702.292-1.141.292h0Z" fill="#fefefe"/>
      <path d="M48.556,34.643c-.542,5.86-2.18,11.074-4.867,15.497-2.446,4.025-5.939,7.538-10.102,10.158-1.334.839-2.507,1.517-3.588,2.071-.63.323-1.284.613-1.944.86-.076.029-.157.062-.242.097-.108.045-.281.117-.369.136-.12-.029-.293-.101-.449-.166-.093-.038-.184-.076-.271-.109-1.121-.429-2.152-1.006-3.244-1.617l-.491-.274c-1.203-.668-2.36-1.402-3.441-2.179-3.824-2.753-7-6.363-9.183-10.44-2.53-4.725-3.939-10.24-4.188-16.395-.175-4.318.153-8.301.976-11.84.194-.177.463-.351.725-.521l.119-.077c.746-.486,1.611-.924,2.643-1.338,2.031-.814,4.32-1.407,7.203-1.864,3.085-.489,6.288-.737,9.52-.737,2.578,0,5.192.158,7.769.471,2.945.357,5.45.881,7.658,1.602,1.526.499,3.444,1.227,4.95,2.483.029.131.057.261.085.392.924,4.408,1.169,9.048.73,13.792h0ZM48.796,20.647c-.052-.244-.104-.487-.165-.729-1.554-1.394-3.571-2.243-5.532-2.884-2.543-.831-5.194-1.323-7.846-1.644-5.803-.703-11.787-.644-17.564.272-2.52.399-5.043.971-7.417,1.922-.977.392-1.933.852-2.816,1.427-.373.243-.799.504-1.107.83-.098.103-.098.105-.13.243-.939,3.972-1.196,8.171-1.031,12.237.236,5.824,1.54,11.661,4.305,16.822,2.287,4.271,5.549,7.949,9.478,10.777,1.134.816,2.317,1.563,3.538,2.241,1.27.706,2.498,1.429,3.862,1.951.298.114.638.284.954.336.332.055.757-.171,1.079-.292.699-.262,1.383-.565,2.048-.906,1.248-.64,2.476-1.368,3.663-2.115,4.22-2.656,7.829-6.215,10.422-10.483,2.923-4.811,4.491-10.336,5.007-15.919.432-4.673.217-9.487-.747-14.087h0Z" fill="#05466b"/>
      <path d="M8.685,45.001c.967-.334,2.001-.517,3.078-.518,1.447,0,2.856.333,4.134.95.824-1.518,1.942-2.875,3.286-3.972,1.598-1.301,3.48-2.202,5.473-2.64v-.006c.351-.077.707-.135,1.067-.183.028-.003.055-.007.082-.011.144-.018.289-.034.434-.047.088-.008.175-.015.264-.021.107-.008.214-.016.322-.021.207-.01.415-.017.623-.017.208,0,.416.007.623.017.108.005.215.013.322.021.088.006.176.013.264.021.145.013.29.029.434.047.027.004.055.007.082.011.36.048.716.105,1.067.183v.006c1.992.438,3.874,1.338,5.473,2.64,1.344,1.097,2.462,2.455,3.286,3.972,1.278-.618,2.687-.951,4.134-.95,1.074,0,2.106.183,3.07.515,1.218-3.166,2.008-6.63,2.353-10.356.439-4.744.193-9.384-.73-13.792-.027-.131-.055-.261-.085-.392-1.506-1.255-3.424-1.983-4.95-2.482-2.208-.722-4.713-1.246-7.658-1.603-2.577-.312-5.191-.47-7.769-.47-3.233,0-6.436.248-9.52.737-2.883.457-5.172,1.049-7.203,1.864-1.032.413-1.897.851-2.643,1.337l-.119.078c-.262.17-.531.344-.725.521-.822,3.539-1.151,7.522-.976,11.84.187,4.622,1.029,8.884,2.508,12.721h0Z" fill="#007bc1"/>
      <path d="M43.131,49.55c-1.301,0-2.547.563-3.416,1.544-.622.707-1.582,1.004-2.489.766-.907-.235-1.608-.96-1.818-1.881-.639-2.811-2.624-4.986-5.182-5.913-.194-.07-.392-.131-.592-.186-.023-.006-.044-.015-.067-.02-.192-.052-.388-.093-.585-.131-.036-.007-.071-.017-.107-.024-.163-.029-.329-.047-.495-.066-.073-.008-.144-.022-.217-.028-.184-.016-.37-.021-.557-.025-.053-.001-.105-.007-.159-.007-.054,0-.105.006-.159.007-.187.004-.374.008-.558.025-.073.006-.144.02-.216.028-.166.019-.332.037-.495.066-.036.006-.071.017-.107.024-.197.038-.393.079-.585.131-.023.006-.045.015-.067.02-.2.056-.397.117-.591.186-2.557.926-4.542,3.103-5.182,5.913-.209.921-.91,1.646-1.817,1.881-.908.238-1.867-.059-2.489-.766-.869-.981-2.115-1.545-3.416-1.544-.294,0-.581.031-.859.085,2.153,3.684,5.122,6.946,8.643,9.481,1.08.777,2.237,1.511,3.44,2.179l.491.274c1.092.611,2.123,1.188,3.243,1.617.087.034.178.071.271.109.155.065.328.137.448.166.088-.02.261-.092.369-.136.084-.035.166-.069.242-.097.66-.247,1.314-.537,1.944-.86,1.08-.554,2.254-1.232,3.588-2.071,4.163-2.621,7.657-6.134,10.103-10.158.101-.167.198-.336.295-.505-.277-.053-.561-.084-.853-.084h0Z" fill="#00ab58"/>
      <path d="M17.906,24.941c-5.307,5.077-5.68,13.372-.99,18.897h0c.653-.88,1.414-1.681,2.267-2.377h0c1.598-1.301,3.48-2.201,5.472-2.64h0v-.006c.351-.077.708-.135,1.067-.182h0c.027-.003.055-.007.082-.01h0c.144-.018.289-.034.434-.047h0c.088-.009.175-.015.264-.021h0c.107-.008.214-.016.322-.021h0c.207-.01.415-.016.623-.016h0c.208,0,.416.006.624.016h0c.108.006.215.014.322.021h0c.088.006.176.013.264.021h0c.145.013.289.029.434.047h0c.027.003.054.007.081.01h0c.36.048.717.106,1.067.182h0v.006c1.992.438,3.874,1.339,5.472,2.64h0c.853.696,1.615,1.497,2.267,2.377,4.521-5.322,4.376-13.309-.557-18.465h0c-2.712-2.835-6.341-4.262-9.976-4.262-3.43,0-6.865,1.271-9.54,3.829h0Z" fill="url(#radial-gradient)" fill-rule="evenodd"/>
      <path d="M38.04,43.89l-.121-.103c4.56-5.369,4.322-13.261-.554-18.359-2.534-2.649-5.948-4.153-9.613-4.234-3.665-.078-7.142,1.27-9.791,3.804-5.24,5.013-5.672,13.265-.984,18.788l-.121.103c-4.743-5.586-4.306-13.934.995-19.005,2.679-2.564,6.188-3.932,9.904-3.848,3.707.082,7.161,1.603,9.724,4.283l-.059.056.059-.056c4.933,5.157,5.174,13.141.561,18.572Z" fill="#fefefe"/>
      <path d="M17.853,24.886c-5.332,5.101-5.705,13.467-.983,19.017h0c.031-.043.063-.085.094-.128h0c-4.644-5.489-4.268-13.742.996-18.778h0c5.469-5.232,14.175-5.039,19.407.43h0c4.893,5.115,5.041,13.061.566,18.348h0c.032.042.063.084.094.127h0c4.549-5.347,4.408-13.401-.549-18.582h0c-2.723-2.846-6.375-4.279-10.033-4.279h0c-3.451,0-6.908,1.276-9.592,3.844h0Z" fill="url(#radial-gradient1)" fill-rule="evenodd"/>
      <path d="M38.088,43.954l-.121-.103c.008-.009.016-.018.023-.028l-.118-.1c2.162-2.555,3.303-5.817,3.212-9.186-.092-3.392-1.432-6.609-3.774-9.056-2.516-2.63-5.91-4.123-9.559-4.203-3.651-.08-7.106,1.26-9.736,3.776l-.107-.112.107.112c-5.202,4.976-5.636,13.176-.989,18.669l-.118.1c.008.009.016.018.023.028l-.121.103c-4.781-5.62-4.347-14.021.988-19.125,5.562-5.321,14.417-5.125,19.738.437,2.4,2.509,3.771,5.805,3.861,9.282.09,3.453-1.086,6.794-3.309,9.407Z" fill="#fefefe"/>
      <path d="M26.895,34.302s-1.802-1.247-2.633-1.829c-1.88-1.317-1.996-1.541-1.996-1.541,0,0,.325-1.289.708-2.307.383-1.018,1.251-2.696,1.251-2.696,0,0,1.773-.304,3.124-.309,1.351-.005,2.979.285,2.979.285,0,0,.437,1.261.813,2.57.376,1.309.65,2.521.65,2.521,0,0-1.707,1.153-2.753,1.859-1.045.706-2.144,1.447-2.144,1.447Z" fill="#fefefe"/>
      <path d="M26.895,34.398l-.045-.031s-1.802-1.248-2.633-1.83c-1.843-1.29-2.008-1.545-2.021-1.569l-.014-.027.007-.029c.003-.013.33-1.305.711-2.316.381-1.011,1.246-2.687,1.255-2.704l.018-.035.039-.007c.018-.003,1.795-.305,3.137-.311.012,0,.025,0,.038,0,1.336,0,2.94.283,2.956.286l.046.008.015.044c.004.013.442,1.278.815,2.574.373,1.296.648,2.513.651,2.525l.012.053-4.986,3.367ZM22.353,30.914c.07.077.419.418,1.955,1.493.754.528,2.306,1.603,2.588,1.798l4.806-3.245c-.057-.247-.309-1.325-.637-2.464-.332-1.156-.716-2.287-.797-2.522-.271-.046-1.687-.276-2.882-.276-.012,0-.025,0-.037,0-1.219.005-2.804.258-3.072.302-.127.247-.882,1.731-1.229,2.652-.342.907-.64,2.043-.696,2.261Z" fill="#fefefe"/>
      <path d="M39.307,40.313s-.599-.067-1.353-.279c-.514-.144-1.383-.662-1.383-.662,0,0,.061-1.155.142-2.123.082-.967-.189-3.566-.189-3.566,0,0,.57-.471,1.521-1.23.951-.759,1.369-1.31,1.369-1.31,0,0,.833.778,1.348,2.27.486,1.408.403,2.537.403,2.537,0,0-.074.783-.66,2.168-.492,1.161-1.198,2.194-1.198,2.194h0Z" fill="#fefefe"/>
      <path d="M39.346,40.397l-.047-.005c-.006,0-.614-.07-1.366-.281-.518-.146-1.366-.649-1.402-.671l-.041-.025.002-.048c0-.012.062-1.167.143-2.125.08-.949-.186-3.525-.189-3.551l-.004-.042.033-.027c.006-.005.581-.48,1.522-1.231.93-.743,1.351-1.29,1.355-1.296l.053-.07.064.06c.035.032.853.809,1.369,2.302.485,1.408.41,2.522.407,2.568-.003.034-.082.813-.666,2.193-.489,1.155-1.198,2.198-1.205,2.208l-.027.039ZM36.653,39.327c.178.103.888.508,1.323.63.619.174,1.138.25,1.293.271.133-.201.734-1.127,1.163-2.14.573-1.355.653-2.137.654-2.145,0-.009.075-1.128-.399-2.503-.422-1.224-1.068-1.968-1.267-2.177-.144.173-.563.644-1.325,1.253-.814.649-1.353,1.092-1.487,1.202.036.352.262,2.631.185,3.538-.071.844-.127,1.843-.14,2.072Z" fill="#fefefe"/>
      <path d="M15.239,40.296s-.859-1.408-1.135-2.585c-.293-1.248-.382-2.628-.382-2.628,0,0,.202-1.554.52-2.376.267-.69.926-1.729.926-1.729,0,0,.529.821,1.203,1.51.563.575,1.239,1.043,1.239,1.043,0,0-.352,1.199-.369,2.864-.014,1.308.356,2.918.356,2.918,0,0-.86.365-1.16.51-.987.478-1.198.471-1.198.471h0Z" fill="#fefefe"/>
      <path d="M15.238,40.376s-.002,0-.002,0h-.043s-.022-.038-.022-.038c-.009-.014-.869-1.433-1.144-2.608-.291-1.24-.383-2.627-.384-2.64.009-.079.207-1.588.525-2.41.267-.69.906-1.7.933-1.743l.066-.105.067.104c.005.008.533.823,1.193,1.497.551.562,1.221,1.029,1.228,1.033l.047.033-.016.055c-.004.012-.349,1.209-.366,2.843-.014,1.284.35,2.883.354,2.899l.015.065-.061.026c-.009.004-.861.366-1.156.509-.949.46-1.198.479-1.233.479ZM13.8,35.094s.093,1.373.381,2.599c.242,1.035.953,2.27,1.099,2.517.099-.02.395-.104,1.122-.457.256-.124.9-.4,1.103-.486-.068-.316-.356-1.717-.344-2.872.015-1.459.289-2.576.357-2.831-.163-.117-.727-.533-1.205-1.02-.532-.543-.978-1.175-1.144-1.419-.172.279-.642,1.062-.854,1.611-.311.804-.513,2.342-.515,2.357h0Z" fill="#fefefe"/>
      <path d="M21.782,23.443s.576-.84,1.7-1.751c-2.026.605-3.942,1.688-5.575,3.25-.352.336-.681.687-.989,1.05l.154.161s1.74-2.114,4.711-2.709Z" fill="#fefefe"/>
      <path d="M17.075,26.271l-.265-.277.046-.055c.312-.368.647-.723.995-1.056,1.606-1.537,3.493-2.637,5.607-3.269l.384-.115-.311.252c-1.1.893-1.678,1.726-1.684,1.735l-.018.027-.032.006c-2.908.582-4.648,2.661-4.666,2.681l-.057.069ZM17.024,25.988l.044.046c.329-.366,2.02-2.122,4.667-2.663.098-.135.571-.768,1.392-1.485-1.938.639-3.674,1.685-5.166,3.113-.327.312-.642.645-.937.989Z" fill="#fefefe"/>
      <path d="M33.149,23.668s2.973.696,4.497,2.582c0,0,.161-.154.202-.41-.138-.158-.279-.313-.425-.466-1.76-1.84-3.907-3.086-6.191-3.734.34.267,1.575,1.27,1.917,2.028h0Z" fill="#fefefe"/>
      <path d="M37.639,26.367l-.054-.067c-1.488-1.842-4.424-2.548-4.453-2.555l-.038-.009-.016-.036c-.331-.733-1.533-1.715-1.894-1.999l-.316-.249.387.11c2.365.672,4.518,1.97,6.226,3.756.138.144.278.298.428.469l.024.028-.006.037c-.045.279-.218.448-.225.455l-.062.06ZM33.205,23.6c.348.089,2.996.809,4.441,2.525.04-.057.092-.147.117-.262-.139-.158-.269-.3-.397-.435-1.596-1.668-3.585-2.906-5.772-3.598.504.421,1.32,1.164,1.612,1.769Z" fill="#fefefe"/>
      <path d="M22.289,31.006c-2.061.628-4.607,2.568-4.632,2.588l-.094-.122c.026-.02,2.595-1.977,4.681-2.613l.045.148h0Z" fill="#fefefe"/>
      <path d="M17.642,33.705l-.191-.248.063-.048c.026-.02,2.603-1.985,4.706-2.626l.076-.023.092.299-.076.023c-2.032.619-4.582,2.555-4.607,2.575l-.063.048Z" fill="#fefefe"/>
      <path d="M15.245,30.985l-.154-.012c.001-.026.216-2.632,1.919-4.868l.123.093c-1.676,2.201-1.886,4.761-1.888,4.787h0Z" fill="#fefefe"/>
      <path d="M15.318,31.07l-.311-.023.004-.078c.001-.026.214-2.652,1.935-4.912l.048-.063.25.189-.048.063c-1.671,2.194-1.87,4.719-1.872,4.744l-.006.079Z" fill="#fefefe"/>
      <path d="M24.286,25.881l-.121.096c-.683-.857-2.418-2.462-2.435-2.478l.105-.114c.017.016,1.761,1.629,2.451,2.495h0Z" fill="#fefefe"/>
      <path d="M24.153,26.089l-.049-.062c-.674-.846-2.41-2.453-2.427-2.468l-.059-.054.213-.23.058.054c.017.016,1.769,1.637,2.459,2.504l.049.062-.245.195Z" fill="#fefefe"/>
      <path d="M33.18,23.739c-1.432.62-2.778,2.2-2.792,2.216l-.118-.1c.014-.016,1.383-1.623,2.849-2.258l.061.142h0Z" fill="#fefefe"/>
      <path d="M30.398,26.065l-.24-.201.052-.061c.014-.016,1.401-1.64,2.878-2.279l.073-.032.124.287-.073.032c-1.388.601-2.707,2.129-2.762,2.194l-.051.06Z" fill="#fefefe"/>
      <path d="M39.491,31.135l-.154.016c-.249-2.336-1.742-4.837-1.757-4.862l.132-.08c.015.025,1.526,2.555,1.779,4.925h0Z" fill="#fefefe"/>
      <path d="M39.267,31.239l-.008-.079c-.245-2.3-1.731-4.804-1.746-4.829l-.041-.068.267-.161.041.067c.015.025,1.536,2.576,1.79,4.958l.008.079-.311.033Z" fill="#fefefe"/>
      <path d="M36.473,33.741c-1.329-1.158-4.68-2.66-4.713-2.675l.063-.141c.034.015,3.406,1.527,4.752,2.7l-.102.116Z" fill="#fefefe"/>
      <path d="M36.481,33.853l-.06-.052c-1.296-1.129-4.554-2.6-4.692-2.662l-.072-.032.125-.286.072.032c.033.015,3.409,1.524,4.773,2.713l.06.052-.206.236Z" fill="#fefefe"/>
      <path d="M26.806,38.534c.032-1.438.067-3.534.012-4.226l.154-.013c.055.696.021,2.79-.011,4.232l-.136.006h-.018s0,0,0,0Z" fill="#fefefe"/>
      <path d="M26.886,38.536l-.159-.004c.035-1.552.066-3.544.012-4.218l-.006-.079.312-.025.006.079c.054.684.024,2.683-.011,4.24l-.154-.004s0,.007,0,.011Z" fill="#fefefe"/>
      <path d="M36.092,39.97c-.367.352-.741.664-1.108.94-.044-.031-.089-.062-.134-.093.552-.413,1.122-.909,1.663-1.499l.114.105c-.176.192-.355.374-.536.547Z" fill="#fefefe"/>
      <path d="M35.032,40.974l-.093-.123c-.014.01-.027.021-.041.031l-.095-.127c.606-.453,1.162-.954,1.652-1.489l.054-.059.231.212-.054.059c-.175.19-.357.375-.539.55l-.06-.062.06.062c-.345.331-.72.649-1.115.946Z" fill="#fefefe"/>
      <path d="M38.584,43.204l-.136-.074c.797-1.458.782-2.802.782-2.816l.154-.003c0,.056.017,1.397-.801,2.893h0Z" fill="#fefefe"/>
      <path d="M38.615,43.312l-.275-.151.038-.069c.771-1.409.773-2.721.772-2.776v-.078s.312-.006.312-.006v.08c.002.058.014,1.428-.809,2.932l-.038.07Z" fill="#fefefe"/>
      <path d="M19.56,41.167c-1.148-.867-2.006-1.784-2.02-1.8l.113-.105c.015.015.883.944,2.035,1.809-.043.032-.086.063-.128.096h0Z" fill="#fefefe"/>
      <path d="M19.512,41.23c-1.158-.875-2.023-1.801-2.031-1.81l-.053-.058.229-.212.054.057c.092.098.924.973,2.025,1.8l-.095.127c-.012-.009-.024-.018-.036-.027l-.093.123Z" fill="#fefefe"/>
      <path d="M16.119,42.668l-.137.073c-.675-1.261-.819-2.424-.821-2.436l.153-.018c.001.011.142,1.148.804,2.381Z" fill="#fefefe"/>
      <path d="M15.95,42.849l-.037-.07c-.649-1.212-.813-2.337-.829-2.461l-.011-.08.312-.039.009.079c.001.011.14,1.132.795,2.353l.038.07-.277.148Z" fill="#fefefe"/>
      <path d="M21.627,52.86v4.756h-1.182v-3.01l-.19.19-.849-.822,1.128-1.114h1.094,0ZM26.182,56.801c0,.113-.022.22-.064.319-.043.099-.102.186-.177.258-.073.072-.16.13-.257.173-.097.043-.203.064-.316.064h-2.231c-.113,0-.22-.022-.319-.064-.1-.043-.185-.101-.257-.173-.072-.072-.13-.159-.173-.258-.043-.1-.064-.206-.064-.319v-.815h1.182v.449h1.495v-.605h-1.862c-.113,0-.22-.02-.319-.061-.1-.041-.186-.099-.258-.173-.072-.075-.13-.161-.173-.258-.043-.097-.064-.205-.064-.323v-1.339c0-.113.022-.22.064-.319.043-.1.101-.186.173-.258.073-.072.157-.13.257-.173.1-.043.206-.065.319-.065h2.231c.113,0,.219.022.316.065.098.043.184.101.257.173.075.073.134.159.177.258.043.1.064.206.064.319v3.126h0ZM25,54.042h-1.495v.605h1.495v-.605ZM30.54,52.853v1.08l-1.774,3.676h-1.325l1.726-3.574h-2.263v-1.182h3.635ZM34.895,55.53v1.182h-.421v.904h-1.182v-.904h-2.426v-1.101l2.501-2.752h1.108v2.67h.421ZM33.292,55.53v-.822l-.741.815.741.007Z" fill="#fefefe"/>
    </g>
  </g>
</svg>