<?xml version="1.0" encoding="UTF-8"?>
<svg id="Layer_1" xmlns="http://www.w3.org/2000/svg" xmlns:xlink="http://www.w3.org/1999/xlink" version="1.1" viewBox="0 0 55 69.59">
  <!-- Generator: Adobe Illustrator 30.0.0, SVG Export Plug-In . SVG Version: 2.1.1 Build 123)  -->
  <defs>
    <clipPath id="clippath">
      <polygon points="26.448 50.227 26.832 51.36 28.708 52.368 30.275 51.744 29.629 50.829 29.15 50.599 28.576 50.385 27.989 50.255 27.246 50.205 26.459 50.227 26.448 50.227" clip-rule="evenodd" fill="none"/>
    </clipPath>
    <linearGradient id="linear-gradient" x1="28.362" y1="52.368" x2="28.362" y2="50.205" gradientUnits="userSpaceOnUse">
      <stop offset="0" stop-color="#231f20"/>
      <stop offset="1" stop-color="#231f20"/>
    </linearGradient>
    <clipPath id="clippath-1">
      <polygon points="23.287 52.584 22.498 54.493 23.673 55.798 25.25 54.444 25.192 52.597 23.324 52.5 23.287 52.584" clip-rule="evenodd" fill="none"/>
    </clipPath>
    <linearGradient id="linear-gradient1" x1="23.874" y1="55.798" x2="23.874" y2="52.5" xlink:href="#linear-gradient"/>
    <clipPath id="clippath-2">
      <polygon points="28.741 54.203 26.856 55.191 27.185 57.141 29.285 57.614 30.362 55.592 28.732 54.192 28.741 54.203" clip-rule="evenodd" fill="none"/>
    </clipPath>
    <linearGradient id="linear-gradient2" x1="28.609" y1="57.614" x2="28.609" y2="54.192" xlink:href="#linear-gradient"/>
    <clipPath id="clippath-3">
      <polygon points="31.915 55.191 32.453 56.171 32.552 55.603 32.442 54.708 32.251 53.846 32.035 53.412 31.881 55.178 31.915 55.191" clip-rule="evenodd" fill="none"/>
    </clipPath>
    <linearGradient id="linear-gradient3" x1="32.217" y1="56.171" x2="32.217" y2="53.412" xlink:href="#linear-gradient"/>
    <clipPath id="clippath-4">
      <polygon points="23.727 59.761 23.248 58.582 24.039 57.586 25.727 58.257 26.351 59.954 25.653 60.806 25.285 60.663 24.758 60.396 24.375 60.205 23.798 59.783 23.727 59.761" clip-rule="evenodd" fill="none"/>
    </clipPath>
    <linearGradient id="linear-gradient4" x1="24.799" y1="60.806" x2="24.799" y2="57.586" xlink:href="#linear-gradient"/>
    <clipPath id="clippath-5">
      <polygon points="28.921 60.71 28.394 60.097 29.794 58.838 31.473 58.715 31.22 59.1 30.886 59.449 30.26 59.965 29.445 60.444 28.908 60.71 28.921 60.71" clip-rule="evenodd" fill="none"/>
    </clipPath>
    <linearGradient id="linear-gradient5" x1="29.934" y1="60.71" x2="29.934" y2="58.715" xlink:href="#linear-gradient"/>
  </defs>
  <g>
    <path d="M.356.895l-.022,43.873c-.019,11.344,12.948,20.552,26.838,23.609,12.89-2.746,27.279-12.229,27.249-23.263V.895H.356Z" fill="#fff"/>
    <path d="M27.172,68.39h-.003c-3.491-.769-6.875-1.907-10.058-3.385-3.24-1.504-6.127-3.292-8.582-5.315-2.573-2.121-4.583-4.433-5.974-6.871-1.487-2.606-2.238-5.315-2.234-8.051L.344.883h54.09v44.231c.007,2.643-.812,5.304-2.434,7.91-1.493,2.399-3.63,4.7-6.35,6.839-2.558,2.012-5.509,3.789-8.772,5.284-3.14,1.438-6.496,2.559-9.703,3.243h-.003ZM.369.908l-.022,43.86c-.005,2.732.746,5.437,2.23,8.039,1.389,2.435,3.397,4.744,5.968,6.864,2.453,2.022,5.338,3.809,8.576,5.312,3.181,1.476,6.563,2.614,10.051,3.382,3.204-.683,6.557-1.803,9.695-3.24,3.261-1.493,6.211-3.27,8.767-5.28,2.718-2.138,4.852-4.436,6.344-6.833,1.62-2.602,2.438-5.259,2.431-7.897V.908H.369Z" fill="#ec1c24"/>
  </g>
  <path d="M32.519,11.917l.087,40.021c1.674.072,3.322-.058,4.941-.3,1.603-.239,3.189-.584,4.796-.942l.26-38.867-10.083.088ZM12.02,11.935v39.029c2.89.823,5.925.932,8.842,1.038.199.007.398.015.597.022l.363-40.196-9.802.106ZM2.255,11.517l9.765.1v.006l9.843-.107h0s10.654.089,10.654.089h0s10.147-.089,10.147-.089h0s9.704.089,9.704.089v27.889c.552,8.276-4.591,10.167-9.874,11.484v.002c-.029.007-.058.013-.088.02-.022.006-.044.011-.067.017v-.002c-1.595.355-3.169.696-4.748.932-1.64.245-3.292.379-4.988.306v-.005c-2.904-3.165-7.775-3.78-11.148.089v-.011s0,.012,0,.012c-.201-.007-.402-.015-.604-.022-2.924-.106-5.965-.216-8.887-1.043-5.837-1.064-10.177-3.797-9.885-11.076l.176-28.679Z" fill="#005aa9" fill-rule="evenodd"/>
  <path d="M21.405,52.469v-.085s-.556-.02-.556-.02c-2.935-.106-5.97-.216-8.899-1.045-3.267-.595-5.643-1.648-7.261-3.219-1.928-1.871-2.797-4.457-2.659-7.906l.176-28.727,9.863.106,9.843-.107v.002l10.606.087,10.196-.089v.002l9.704.087v27.938c.251,3.763-.654,6.508-2.765,8.389-1.948,1.735-4.682,2.528-7.101,3.132h0s-.134.034-.134.034c-.021.005-.044.011-.066.016l-.061.014v-.003c-1.576.351-3.122.684-4.692.919-1.826.273-3.461.373-4.997.306l-.046-.002v-.033c-1.528-1.658-3.589-2.593-5.659-2.567-2.03.026-3.895.944-5.392,2.656v.032s-.027,0-.027,0l-.071.082ZM2.304,11.566l-.176,28.63c-.137,3.421.723,5.982,2.629,7.833,1.604,1.557,3.964,2.602,7.215,3.194,2.923.826,5.951.936,8.88,1.042l.581.021c1.516-1.731,3.404-2.659,5.461-2.686,2.097-.029,4.189.922,5.736,2.603,1.522.064,3.143-.036,4.953-.306,1.587-.237,3.15-.576,4.745-.931l.06-.013h0s.094-.023.094-.023c2.419-.603,5.162-1.391,7.105-3.121,2.088-1.86,2.982-4.578,2.733-8.312V11.653s-9.704-.088-9.704-.088l-10.097.088-10.704-.088-9.843.107v-.007l-9.667-.099ZM21.507,52.075l-.647-.024c-2.929-.106-5.957-.216-8.854-1.04l-.036-.01V11.887h.049s9.852-.108,9.852-.108l-.364,40.296ZM12.069,50.927c2.874.812,5.884.921,8.795,1.026l.546.02.362-40.095-9.703.105v38.943ZM33.536,52.007c-.315,0-.626-.007-.933-.02l-.047-.002v-.047l-.087-40.07,10.181-.089-.26,38.956-.038.008c-1.619.361-3.205.705-4.799.943-1.437.215-2.76.321-4.017.321ZM32.654,51.891c1.513.062,3.112-.037,4.885-.302,1.578-.236,3.149-.575,4.754-.933l.259-38.778-9.984.087.086,39.925Z" fill="#005aa9"/>
  <path d="M27.23,68.367l-.069-.015c-7.094-1.561-13.696-4.643-18.591-8.679C3.169,55.219.319,50.025.328,44.652L.349.881h54.193v44.114c.007,2.676-.82,5.368-2.458,8-1.498,2.407-3.638,4.712-6.361,6.854-5.074,3.991-11.79,7.09-18.424,8.503l-.069.015ZM1.005,1.537l-.022,43.116c-.009,5.171,2.759,10.19,8.004,14.514,4.801,3.958,11.278,6.985,18.246,8.529,6.517-1.4,13.105-4.446,18.085-8.363,2.662-2.094,4.752-4.343,6.209-6.685,1.572-2.526,2.366-5.1,2.359-7.652V1.537H1.005Z" fill="#ec1c24"/>
  <path d="M21.741,64.589l-.034-.126c8.329-2.259,14.936-4.587,21.42-7.548l.054.119c-6.491,2.964-13.104,5.294-21.44,7.555Z" fill="#231f20"/>
  <path d="M31.921,64.573l-.495-.147c-5.25-1.553-10.209-3.02-15.006-5.141-1.949-.861-3.982-1.84-5.898-2.768l.057-.118c1.915.928,3.948,1.905,5.894,2.766,4.789,2.117,9.744,3.583,14.99,5.135l.495.147-.037.126Z" fill="#231f20"/>
  <path d="M11.78,57.135c-.755.133-1.535.081-2.34-.266-.387-.366-.48-.93-.425-1.542.9-.115,1.616.041,2.074.319.39.509.658.993.691,1.489Z" fill="#231f20" fill-rule="evenodd"/>
  <path d="M11.025,57.252c-.551,0-1.081-.112-1.605-.338l-.014-.009c-.356-.337-.504-.869-.441-1.582l.004-.039.039-.005c.836-.107,1.584.009,2.106.326l.013.012c.454.592.67,1.059.701,1.515l.003.044-.044.008c-.26.046-.514.069-.763.069ZM9.467,56.827c.726.311,1.466.399,2.26.267-.04-.42-.249-.858-.672-1.411-.494-.297-1.201-.408-1.995-.312-.052.658.085,1.148.407,1.457Z" fill="#231f20"/>
  <path d="M14.851,58.448c-.717-.271-1.362-.713-1.877-1.423-.146-.513-.184-1.032.175-1.531.624-.021,1.492.896,1.744,1.37.223.624.182,1.14-.042,1.584Z" fill="#231f20" fill-rule="evenodd"/>
  <path d="M14.875,58.51l-.041-.016c-.792-.299-1.413-.77-1.899-1.44l-.007-.015c-.126-.44-.218-1.017.183-1.573l.014-.02h.024c.64-.017,1.521.891,1.789,1.395.219.611.205,1.141-.042,1.629l-.02.04ZM13.019,57.003c.465.638,1.057,1.091,1.807,1.383.215-.452.221-.945.02-1.506-.245-.46-1.082-1.333-1.672-1.337-.357.513-.273,1.048-.156,1.46Z" fill="#231f20"/>
  <path d="M13.808,58.025c-.221.464-.614.927-1.032,1.169-.61.275-1.736.254-2.273-.099-.05-.465.206-.848,1.007-1.083.791-.131,1.519-.127,2.297.012Z" fill="#231f20" fill-rule="evenodd"/>
  <path d="M11.738,59.433c-.483,0-.965-.102-1.262-.297l-.019-.013-.002-.023c-.058-.541.283-.912,1.043-1.136.801-.133,1.536-.129,2.32.011l.063.011-.028.058c-.236.495-.639.952-1.052,1.191-.294.133-.679.197-1.063.197ZM10.55,59.067c.509.317,1.591.359,2.206.082.37-.215.75-.638.979-1.087-.748-.127-1.455-.128-2.216,0-.69.203-1.009.532-.969,1.006Z" fill="#231f20"/>
  <path d="M17.199,59.625c-.221.464-.614.927-1.032,1.169-.61.275-1.736.254-2.273-.099-.05-.465.206-.848,1.007-1.083.79-.131,1.519-.127,2.297.012Z" fill="#231f20" fill-rule="evenodd"/>
  <path d="M15.129,61.033c-.483,0-.965-.102-1.262-.297l-.019-.013-.002-.023c-.058-.541.283-.913,1.043-1.136.801-.133,1.536-.129,2.32.011l.063.011-.028.058c-.236.495-.639.951-1.052,1.191-.294.133-.679.197-1.063.197ZM13.941,60.667c.508.317,1.591.359,2.206.082.37-.215.75-.638.979-1.087-.748-.127-1.454-.128-2.216-.001-.69.203-1.009.532-.969,1.006Z" fill="#231f20"/>
  <path d="M20.186,60.626c-.504-.099-1.051-.364-1.39-.708-.418-.522-.679-1.618-.471-2.226.438-.165.872-.012,1.3.706.324.733.502,1.44.561,2.228Z" fill="#231f20" fill-rule="evenodd"/>
  <path d="M20.24,60.687l-.063-.012c-.538-.105-1.081-.382-1.415-.722-.456-.569-.689-1.673-.483-2.276l.008-.022.022-.008c.509-.191.954.046,1.36.727.329.742.508,1.456.568,2.25l.005.064ZM18.364,57.73c-.18.572.049,1.63.47,2.157.3.305.804.568,1.297.677-.063-.757-.239-1.44-.551-2.147-.368-.617-.767-.844-1.216-.687Z" fill="#231f20"/>
  <path d="M20.186,60.626c-.504-.099-1.051-.364-1.39-.708-.418-.522-.679-1.618-.471-2.226.438-.165.872-.012,1.3.706.324.733.502,1.44.561,2.228Z" fill="#231f20" fill-rule="evenodd"/>
  <path d="M20.24,60.687l-.063-.012c-.538-.105-1.081-.382-1.415-.722-.456-.569-.689-1.673-.483-2.276l.008-.022.022-.008c.509-.191.954.046,1.36.727.329.742.508,1.456.568,2.25l.005.064ZM18.364,57.73c-.18.572.049,1.63.47,2.157.3.305.804.568,1.297.677-.063-.757-.239-1.44-.551-2.147-.368-.617-.767-.844-1.216-.687Z" fill="#231f20"/>
  <path d="M20.186,60.626c-.504-.099-1.051-.364-1.39-.708-.418-.522-.679-1.618-.471-2.226.438-.165.872-.012,1.3.706.324.733.502,1.44.561,2.228Z" fill="#231f20" fill-rule="evenodd"/>
  <path d="M20.24,60.687l-.063-.012c-.538-.105-1.081-.382-1.415-.722-.456-.569-.689-1.673-.483-2.276l.008-.022.022-.008c.509-.191.954.046,1.36.727.329.742.508,1.456.568,2.25l.005.064ZM18.364,57.73c-.18.572.049,1.63.47,2.157.3.305.804.568,1.297.677-.063-.757-.239-1.44-.551-2.147-.368-.617-.767-.844-1.216-.687Z" fill="#231f20"/>
  <path d="M35.534,60.246c.427-.286,1.002-.483,1.485-.478.665.076,1.622.669,1.904,1.246-.195.426-.61.623-1.419.416-.747-.291-1.371-.667-1.969-1.185Z" fill="#231f20" fill-rule="evenodd"/>
  <path d="M38.081,61.563c-.174,0-.37-.028-.59-.085-.756-.294-1.386-.674-1.989-1.195l-.049-.042.054-.036c.456-.305,1.031-.493,1.512-.486.724.082,1.668.701,1.947,1.274l.01.021-.01.021c-.161.353-.454.528-.886.528ZM35.616,60.251c.578.492,1.185.853,1.905,1.133.696.178,1.139.058,1.347-.37-.275-.532-1.184-1.122-1.855-1.198-.005,0-.011,0-.016,0-.425,0-.96.168-1.381.434Z" fill="#231f20"/>
  <path d="M21.364,61.244c-.235.492-.652.984-1.095,1.241-.648.292-1.843.27-2.412-.104-.053-.494.219-.9,1.069-1.149.839-.139,1.613-.135,2.438.013Z" fill="#231f20" fill-rule="evenodd"/>
  <path d="M19.167,62.736c-.512,0-1.023-.108-1.337-.315l-.019-.013-.002-.023c-.062-.572.3-.966,1.104-1.202.85-.141,1.629-.137,2.461.012l.063.011-.028.058c-.25.525-.678,1.009-1.115,1.262-.312.141-.72.209-1.127.209ZM17.903,62.352c.54.338,1.691.383,2.345.088.394-.229.8-.68,1.043-1.159-.796-.136-1.547-.136-2.357-.002-.735.216-1.074.567-1.031,1.072Z" fill="#231f20"/>
  <path d="M31.653,61.657c.452-.305,1.061-.518,1.573-.515.706.077,1.726.701,2.027,1.312-.204.453-.644.665-1.504.449-.794-.305-1.459-.701-2.096-1.247Z" fill="#231f20" fill-rule="evenodd"/>
  <path d="M34.355,63.038c-.182,0-.388-.029-.618-.087-.804-.308-1.474-.707-2.116-1.257l-.049-.042.053-.036c.479-.323,1.087-.523,1.59-.523.004,0,.007,0,.011,0,.768.083,1.772.734,2.071,1.34l.01.021-.009.021c-.17.377-.481.563-.943.563ZM31.735,61.662c.618.521,1.265.901,2.031,1.196.742.186,1.213.055,1.432-.402-.294-.565-1.264-1.187-1.978-1.264h-.009c-.454,0-1.027.183-1.477.471Z" fill="#231f20"/>
  <path d="M33.76,60.779c-.146-.525-.154-1.17.012-1.655.297-.645,1.213-1.413,1.889-1.504.364.338.426.822-.052,1.569-.542.656-1.128,1.16-1.848,1.59Z" fill="#231f20" fill-rule="evenodd"/>
  <path d="M33.73,60.854l-.017-.062c-.156-.56-.151-1.206.013-1.684.323-.702,1.26-1.447,1.929-1.537l.023-.003.017.016c.422.391.408.925-.044,1.631-.548.664-1.14,1.173-1.865,1.606l-.055.033ZM35.644,57.672c-.629.099-1.527.821-1.828,1.473-.147.432-.157,1.038-.026,1.558.69-.42,1.256-.912,1.78-1.546.413-.645.438-1.133.074-1.486Z" fill="#231f20"/>
  <path d="M37.898,59.167c-.146-.525-.154-1.17.012-1.655.297-.645,1.213-1.413,1.889-1.504.364.337.426.822-.052,1.569-.542.656-1.128,1.16-1.848,1.59Z" fill="#231f20" fill-rule="evenodd"/>
  <path d="M37.867,59.242l-.017-.062c-.156-.561-.151-1.206.013-1.684.323-.702,1.26-1.446,1.929-1.537l.023-.003.017.016c.422.391.408.925-.044,1.631-.548.664-1.139,1.173-1.865,1.606l-.055.033ZM39.782,56.059c-.629.099-1.527.821-1.828,1.473-.147.431-.157,1.038-.026,1.559.69-.42,1.257-.913,1.78-1.546.413-.645.438-1.133.074-1.486Z" fill="#231f20"/>
  <path d="M42.228,57.44c.071-.541.316-1.137.658-1.519.526-.477,1.669-.826,2.327-.646.203.453.07.923-.662,1.424-.755.392-1.492.627-2.323.741Z" fill="#231f20" fill-rule="evenodd"/>
  <path d="M42.171,57.498l.008-.064c.076-.577.333-1.169.67-1.545.572-.52,1.725-.839,2.376-.66l.022.006.009.021c.236.525.014,1.011-.679,1.484-.764.397-1.507.634-2.344.749l-.064.009ZM44.813,55.278c-.625,0-1.456.282-1.894.68-.304.339-.55.894-.633,1.424.799-.117,1.513-.348,2.242-.727.632-.432.846-.871.649-1.338-.108-.027-.231-.04-.364-.04Z" fill="#231f20"/>
  <path d="M39.635,58.598c.424-.342.939-.323,1.45-.363.71.017,1.766.331,2.118.914-.242.361-.673.595-1.461.575-.817-.236-1.623-.427-2.108-1.126Z" fill="#231f20" fill-rule="evenodd"/>
  <path d="M41.835,59.775c-.031,0-.062,0-.094-.001l-.012-.002-.163-.047c-.776-.222-1.509-.432-1.971-1.099l-.026-.038.036-.029c.377-.304.827-.332,1.262-.359.072-.005.143-.009.215-.015.676.016,1.79.317,2.164.938l.016.027-.017.026c-.27.402-.731.598-1.409.598ZM41.75,59.675c.675.017,1.131-.157,1.394-.527-.371-.571-1.422-.849-2.061-.864-.067.006-.14.01-.212.015-.424.026-.826.051-1.17.309.444.608,1.147.809,1.89,1.022l.158.045Z" fill="#231f20"/>
  <path d="M50.741,3.179h1.572v6.801h-1.572V3.179ZM48.542,7.201l1.375.557c-.092.516-.238.947-.436,1.294-.199.347-.446.608-.74.784-.295.178-.669.265-1.123.265-.552,0-1.004-.108-1.352-.321-.35-.215-.653-.594-.907-1.135-.253-.541-.381-1.233-.381-2.078,0-1.126.223-1.992.67-2.595.447-.605,1.079-.907,1.896-.907.64,0,1.142.172,1.508.519.366.347.638.879.816,1.596l-1.385.413c-.049-.207-.099-.359-.152-.456-.088-.16-.195-.283-.322-.37-.128-.087-.269-.13-.427-.13-.355,0-.628.192-.817.575-.143.285-.215.732-.215,1.341,0,.755.086,1.272.257,1.552.171.28.411.42.72.42.3,0,.527-.112.681-.339.154-.225.265-.553.335-.983ZM39.263,3.179h1.466l1.912,3.762v-3.762h1.479v6.801h-1.479l-1.902-3.734v3.734h-1.475V3.179ZM36.531,7.386l-.562-2.445-.558,2.445h1.12ZM36.86,8.857h-1.787l-.246,1.123h-1.603l1.908-6.801h1.711l1.909,6.801h-1.642l-.25-1.123ZM29.815,5.934h.662c.071,0,.209-.03.415-.092.104-.029.189-.1.255-.214.065-.114.098-.245.098-.394,0-.22-.052-.388-.156-.505-.104-.119-.299-.177-.585-.177h-.689v1.383ZM28.239,9.98V3.179h2.615c.485,0,.856.055,1.111.168.257.111.464.317.621.619.157.301.235.668.235,1.1,0,.378-.06.703-.18.977-.121.274-.286.495-.495.667-.135.108-.318.198-.551.267.187.084.323.168.409.252.057.055.141.174.251.356.11.184.183.323.22.423l.759,1.972h-1.773l-.838-2.079c-.106-.267-.201-.443-.285-.524-.112-.105-.241-.157-.384-.157h-.138v2.76h-1.576ZM24.291,4.719v3.715h.384c.329,0,.562-.047.7-.146.138-.097.247-.268.326-.51.078-.242.117-.636.117-1.181,0-.721-.087-1.213-.262-1.479-.176-.266-.467-.399-.874-.399h-.391ZM22.722,3.179h2.331c.459,0,.83.084,1.113.25.283.168.517.407.701.719.185.314.318.676.402,1.091.083.415.124.853.124,1.318,0,.727-.062,1.29-.186,1.691-.123.4-.294.736-.514,1.006-.219.271-.454.451-.706.541-.344.123-.656.185-.935.185h-2.331V3.179ZM18.165,6.593c0,.687.095,1.18.285,1.481.19.299.45.45.778.45.337,0,.598-.147.783-.44.184-.294.278-.822.278-1.582,0-.641-.097-1.108-.29-1.405-.193-.294-.454-.442-.785-.442-.316,0-.57.149-.761.45-.192.299-.287.796-.287,1.489ZM16.595,6.583c0-1.11.232-1.975.693-2.592.462-.619,1.105-.928,1.929-.928.845,0,1.497.304,1.954.912.456.607.686,1.459.686,2.553,0,.795-.101,1.447-.3,1.956-.2.508-.488.904-.865,1.188-.378.283-.848.425-1.412.425-.572,0-1.046-.122-1.422-.366-.375-.245-.679-.632-.913-1.161-.233-.529-.35-1.191-.35-1.986ZM8.526,3.179h1.569v2.57l1.645-2.57h2.085l-1.85,2.565,1.933,4.236h-1.933l-1.07-2.798-.811,1.137v1.661h-1.569V3.179ZM2.621,3.179h1.466l1.912,3.762v-3.762h1.479v6.801h-1.479l-1.902-3.734v3.734h-1.475V3.179Z" fill="#231f20" fill-rule="evenodd"/>
  <path d="M17.982,14.502c-.389,0-.798.69-1.111.958-.865-.032-1.577.3-2.442.823-1.358.737-3.676.604-3.151,2.394l.603.086-.335.469c.306.591.804.473,1.436.622,1.952-.389,1.964.482,3.122.182,1.272.999,1.565,2.976,1.341,3.687l-.268,2.298-1.341,1.456c-1.213.504-2.388.798-3.754.938-1.092.185-1.376.861-1.293,1.762.313,1.58.684,3.045.555,4.358-.026.651.217.69.67.919,1.3.162,1.181,1.245,2.346,1.274l.268-1.877c.036-.396-.082-.562-.642-.728-.457-.179-.99-.165-1.236-1.015l.01-2.126c.076-.438.249-.684.862-.622h2.011c4.991,3.507,6.204,5.901,11.464,6.876-.887,3.465,2.234,4.457,3.859,6.311-1.235,1.149-3.544,1.915-4.395,2.872-.623.652-.767,1.265-1.007,1.84v.805h2.145l.029-.919.574-.287c-.016-.372-.189-.728.804-1.207l4.223-1.877c.495-.006.799-1.22.335-1.743l-.939-.938c.045-.782.434-1.238.134-2.346,1.287.008,1.979-1.251,2.883-3.084l.268-3.285,1.021-.213c.772-.472,1.384.239,1.289,2.094-.048.95-.659,2.136-.985,3.29-.489,1.734-.721,1.242-.686,2.639.025.99.239,2.427.614,2.895.225.281,1.089-1.08,1.46-1.072.134-.459-.037-1.189.403-1.376l.525-.222.115-1.497.229-.861c.256-1.805,1.636-3.603,1.436-5.415-.274-2.479-.492-5.655-3.595-2.816l-1.087,1.116c-.671.214-1.092.697-2.128-.335-1.474-.916-3.121-1.507-5.113-2.116-1.797-.874-6.662-4.451-6.771-5.899l.929.163c-.126-1.269-1.768-6.413-3.946-6.8l-1.408-1.341c-.157-.358.205-.753-.335-1.111Z" fill="#231f20" fill-rule="evenodd"/>
  <path d="M27.734,49.098h-2.21l.002-.85c.046-.11.087-.219.131-.334.184-.484.374-.984.882-1.516.432-.486,1.234-.921,2.083-1.382.827-.449,1.682-.913,2.29-1.47-.427-.482-.966-.914-1.486-1.332-1.476-1.185-3.002-2.41-2.368-4.951-3.691-.691-5.419-2.109-7.809-4.069-1.011-.829-2.156-1.768-3.625-2.801h-2.001c-.597-.059-.756.173-.83.595l-.009,2.116c.196.672.564.784.954.902.086.026.175.053.261.087.551.163.701.334.662.761l-.272,1.907h-.029c-.596-.015-.862-.297-1.145-.596-.278-.294-.566-.599-1.205-.679l-.011-.003c-.048-.025-.094-.047-.138-.068-.37-.18-.574-.279-.55-.882.109-1.115-.145-2.349-.414-3.656-.047-.229-.095-.46-.141-.694-.099-1.061.321-1.632,1.319-1.801,1.372-.141,2.525-.429,3.74-.934l1.329-1.443.267-2.288c.233-.74-.093-2.675-1.316-3.647-.519.131-.81.029-1.147-.088-.418-.146-.892-.311-1.961-.098h-.007s-.007,0-.007,0c-.159-.038-.307-.058-.451-.077-.414-.056-.771-.105-1.007-.562l-.009-.018.316-.442-.571-.082-.006-.02c-.171-.582-.057-1.019.349-1.334.36-.279.899-.437,1.47-.604.467-.137.95-.278,1.347-.494.878-.532,1.597-.857,2.446-.828.095-.083.199-.205.309-.335.249-.292.532-.623.813-.623h.01s.008.005.008.005c.359.238.337.493.316.739-.012.133-.022.26.028.38l1.396,1.329c2.23.411,3.845,5.639,3.963,6.827l.004.043-.929-.163c.196,1.437,4.931,4.947,6.748,5.83,2.018.617,3.662,1.214,5.116,2.118.846.842,1.272.665,1.766.46.104-.043.212-.088.326-.125l1.081-1.11c1.019-.932,1.789-1.281,2.357-1.067.908.342,1.097,2.091,1.265,3.633l.029.269c.118,1.068-.314,2.144-.731,3.184-.294.734-.599,1.493-.705,2.239l-.229.865-.115,1.511-.543.23c-.275.116-.295.462-.316.829-.011.182-.022.37-.067.526l-.007.024h-.025s-.002,0-.003,0c-.159,0-.447.302-.701.568-.277.291-.516.542-.677.542-.002,0-.004,0-.006,0-.04-.002-.073-.019-.098-.05-.367-.459-.594-1.844-.621-2.914-.021-.842.055-1.008.223-1.373.113-.245.267-.58.464-1.276.119-.422.277-.851.43-1.266.269-.729.523-1.418.553-2.016.057-1.112-.142-1.887-.544-2.126-.197-.117-.438-.096-.696.062l-.01.004-.997.208-.269,3.272c-.915,1.858-1.613,3.082-2.869,3.102.187.723.08,1.174-.023,1.611-.051.215-.104.438-.12.689l.928.928c.302.341.291.972.107,1.387-.114.257-.281.406-.458.412l-4.218,1.874c-.854.411-.825.717-.795,1.041.004.045.008.089.01.134v.021s-.575.288-.575.288l-.029.932ZM25.59,49.033h2.081l.028-.907.573-.287c-.002-.037-.006-.073-.009-.11-.031-.332-.062-.675.833-1.107l4.237-1.88c.154-.002.302-.138.406-.373.175-.396.188-.996-.095-1.315l-.948-.947v-.015c.016-.264.07-.493.123-.715.104-.437.211-.89.013-1.62l-.011-.042h.043s.007,0,.011,0c1.237,0,1.929-1.212,2.839-3.06l.27-3.303,1.04-.217c.278-.168.54-.189.758-.059.424.252.634,1.049.576,2.186-.031.608-.287,1.301-.557,2.036-.152.414-.31.841-.429,1.261-.198.701-.354,1.039-.467,1.286-.164.355-.238.517-.217,1.344.027,1.075.261,2.444.606,2.875.013.017.029.025.049.026.001,0,.003,0,.004,0,.132,0,.385-.265.629-.522.277-.291.54-.567.726-.587.038-.145.049-.32.059-.489.022-.37.044-.753.356-.885l.506-.214.113-1.477.229-.867c.106-.75.412-1.513.708-2.25.414-1.033.843-2.101.727-3.152l-.029-.269c-.165-1.524-.353-3.251-1.223-3.579-.542-.204-1.29.14-2.288,1.053l-1.099,1.123c-.115.037-.224.082-.329.126-.516.214-.961.399-1.832-.469-1.442-.895-3.082-1.491-5.1-2.108-.957-.465-2.65-1.617-4.029-2.74-1.004-.818-2.699-2.32-2.764-3.188l-.003-.042.927.163c-.15-1.259-1.737-6.341-3.914-6.728l-.01-.002-.007-.007-1.415-1.351c-.06-.138-.048-.28-.036-.418.02-.236.04-.458-.279-.673-.248.008-.517.322-.754.6-.116.135-.225.263-.326.35l-.01.008h-.013c-.844-.031-1.528.276-2.424.818-.405.22-.891.362-1.361.5-.565.165-1.098.322-1.448.593-.383.297-.489.693-.333,1.243l.636.091-.355.497c.221.41.542.454.949.509.143.02.291.04.45.077,1.082-.214,1.563-.047,1.989.101.33.115.616.214,1.125.082l.016-.004.013.01c1.256.986,1.589,2.971,1.352,3.723l-.268,2.303-.007.008-1.353,1.464c-1.224.509-2.384.799-3.763.941-.956.161-1.358.71-1.263,1.727.046.23.093.461.14.69.27,1.312.525,2.551.415,3.674-.022.558.157.645.513.818.042.02.087.042.134.066.659.084.954.396,1.239.698.268.283.521.552,1.069.574l.264-1.848c.033-.365-.056-.525-.618-.692-.086-.033-.174-.06-.259-.086-.39-.119-.794-.241-.999-.951v-.009s.008-2.126.008-2.126c.079-.454.256-.719.898-.655h2.018s.008.006.008.006c1.475,1.036,2.624,1.978,3.637,2.81,2.389,1.96,4.116,3.375,7.813,4.061l.034.006-.009.034c-.646,2.523.871,3.74,2.337,4.917.532.427,1.081.868,1.516,1.364l.021.024-.023.022c-.615.572-1.485,1.045-2.326,1.501-.844.458-1.641.89-2.066,1.369-.5.523-.687,1.017-.869,1.494-.041.109-.084.221-.129.33v.765Z" fill="#231f20"/>
  <path d="M27.12,61.063c-3.011,0-5.46-2.454-5.46-5.471s2.449-5.471,5.46-5.471,5.456,2.454,5.456,5.471-2.447,5.471-5.456,5.471ZM27.12,50.237c-2.947,0-5.344,2.402-5.344,5.355s2.397,5.355,5.344,5.355,5.34-2.402,5.34-5.355-2.396-5.355-5.34-5.355Z" fill="#231f20"/>
  <rect x="24.849" y="51.829" width="2.519" height=".116" transform="translate(-26.21 26.654) rotate(-37.541)" fill="#231f20"/>
  <rect x="28.66" y="52.163" width=".116" height="2.607" transform="translate(-2.415 1.37) rotate(-2.622)" fill="#231f20"/>
  <rect x="26.002" y="53.746" width=".116" height="2.166" transform="translate(-34.641 55.708) rotate(-65.408)" fill="#231f20"/>
  <rect x="23.277" y="51.754" width=".116" height="1.153" fill="#231f20"/>
  <rect x="21.626" y="54.723" width="1.093" height=".116" transform="translate(-29.078 25.353) rotate(-38.101)" fill="#231f20"/>
  <rect x="23.816" y="55.632" width=".116" height="2.314" transform="translate(-10.701 5.803) rotate(-11.341)" fill="#231f20"/>
  <polygon points="25.559 58.388 25.544 58.274 25.716 58.252 27.474 56.821 27.547 56.911 25.776 58.352 25.747 58.364 25.559 58.388" fill="#231f20"/>
  <rect x="27.382" y="58.706" width=".116" height="2.64" transform="translate(-34.412 83.056) rotate(-85.856)" fill="#231f20"/>
  <rect x="29.477" y="57.367" width=".116" height="1.762" transform="translate(-18.188 13.665) rotate(-20.061)" fill="#231f20"/>
  <rect x="29.629" y="55.371" width="2.528" height=".116" transform="translate(-13.967 10.547) rotate(-15.853)" fill="#231f20"/>
  <rect x="30.661" y="51.3" width=".116" height="1.306" transform="translate(-29.129 59.76) rotate(-66.837)" fill="#231f20"/>
  <rect x="22.82" y="57.733" width=".116" height="1.318" transform="translate(-39.233 49.718) rotate(-60.655)" fill="#231f20"/>
  <g clip-path="url(#clippath)">
    <rect x="26.448" y="50.205" width="3.827" height="2.163" fill="url(#linear-gradient)"/>
  </g>
  <path d="M28.721,52.398l-.028-.002-1.876-1.008-.016-.018-.384-1.133.031-.043h.011l.786-.022.746.05.592.131.579.216.482.231.013.011.646.914-.015.049-1.567.624ZM26.859,51.337l1.852.994,1.514-.603-.617-.873-.471-.226-.571-.213-.583-.129-.738-.049-.75.021.365,1.079Z" fill="#231f20"/>
  <g clip-path="url(#clippath-1)">
    <rect x="22.498" y="52.5" width="2.752" height="3.298" fill="url(#linear-gradient1)"/>
  </g>
  <path d="M23.694,55.823l-.046-.003-1.174-1.305-.006-.034.826-1.994.032-.02,1.868.098.031.032.059,1.846-.011.026-1.578,1.354ZM22.536,54.487l1.139,1.265,1.541-1.323-.057-1.8-1.815-.095-.028.063-.781,1.89Z" fill="#231f20"/>
  <g clip-path="url(#clippath-2)">
    <rect x="26.856" y="54.192" width="3.506" height="3.421" fill="url(#linear-gradient2)"/>
  </g>
  <path d="M29.278,57.646l-2.1-.472-.025-.027-.329-1.95.017-.034,1.885-.988.007.014.021-.02,1.63,1.4.008.04-1.077,2.022-.036.017ZM27.214,57.114l2.054.462,1.053-1.976-1.582-1.359-1.847.968.322,1.905Z" fill="#231f20"/>
  <g clip-path="url(#clippath-3)">
    <rect x="31.881" y="53.412" width=".672" height="2.759" fill="url(#linear-gradient3)"/>
  </g>
  <path d="M32.424,56.187l-.532-.969-.023-.009-.021-.034.154-1.766.062-.012.217.433.193.87.111.898v.01s-.1.568-.1.568l-.061.01ZM31.915,55.156l.011.004.017.015.493.898.083-.471-.11-.89-.19-.859-.162-.323-.142,1.626Z" fill="#231f20"/>
  <g clip-path="url(#clippath-4)">
    <rect x="23.248" y="57.586" width="3.103" height="3.22" fill="url(#linear-gradient4)"/>
  </g>
  <path d="M25.641,60.836l-.368-.143-.913-.459-.577-.422-.066-.02-.021-.019-.479-1.179.005-.033.791-.997.038-.01,1.688.672.019.019.624,1.697-.005.032-.698.852-.037.01ZM23.751,59.734l.067.022.576.422.379.188.527.267.343.133.671-.819-.612-1.665-1.652-.657-.764.963.466,1.146Z" fill="#231f20"/>
  <g clip-path="url(#clippath-5)">
    <rect x="28.394" y="58.715" width="3.079" height="1.996" fill="url(#linear-gradient5)"/>
  </g>
  <path d="M28.921,60.743h-.013l-.004-.018-.008.007-.527-.613.003-.046,1.4-1.259.02-.008,1.679-.124.03.051-.254.386-.337.354-.629.518-.819.482-.541.271ZM28.44,60.1l.485.565.505-.251.813-.478.622-.513.331-.346.213-.325-1.602.118-1.368,1.23Z" fill="#231f20"/>
  <path d="M19.106,56.762l-.38-.08.956-.97c-.069.001-.133,0-.19-.003-.057-.004-.108-.01-.153-.02-.281-.059-.492-.205-.635-.439-.143-.234-.182-.499-.121-.795.064-.305.216-.535.455-.693.24-.158.513-.205.819-.141.3.063.529.213.687.451.158.238.207.5.148.786-.052.248-.247.542-.584.881-.032.033-.056.058-.073.076l-.929.947ZM19.46,55.433c.212.044.406.008.58-.11.174-.117.284-.283.329-.499.045-.218.011-.417-.104-.597-.115-.18-.277-.292-.487-.336-.202-.042-.387-.005-.554.11-.167.116-.274.286-.321.511-.047.224-.018.422.087.595.105.173.261.281.469.325ZM16.943,56.31l-.323-.068.591-2.828-.54-.113.056-.265.862.18-.647,3.093Z" fill="#231f20" fill-rule="evenodd"/>
  <path d="M38.382,56.419l-1.986.36-.056-.31.94-1.283c.186-.253.303-.448.354-.584.05-.136.063-.27.039-.402-.036-.201-.132-.357-.288-.469-.156-.112-.335-.15-.538-.113-.208.038-.362.137-.461.298-.1.161-.129.357-.087.587.002.011.006.027.01.046.005.019.008.033.01.044l-.31.056-.009-.048c-.058-.323-.011-.603.142-.84.153-.236.38-.382.679-.436.272-.049.52.007.745.168.225.162.364.386.416.673.03.166.019.332-.034.498-.052.166-.15.345-.294.538l-.899,1.192,1.57-.284.056.31ZM34.496,57.123l-.352.064.744-3.117-1.402.254-.057-.315,1.767-.32.052.288-.752,3.146Z" fill="#231f20" fill-rule="evenodd"/>
</svg>