<?xml version="1.0" encoding="UTF-8"?>
<svg id="Layer_2" xmlns="http://www.w3.org/2000/svg" version="1.1" viewBox="0 0 55 69.59">
  <!-- Generator: Adobe Illustrator 30.0.0, SVG Export Plug-In . SVG Version: 2.1.1 Build 123)  -->
  <path d="M52.661,19.775H2.339l1.191,23.859h.006l.065,1.063c.451,10.166,10.953,18.13,23.909,18.13s23.643-8.248,23.919-18.386l1.231-24.666Z" fill="#fff100"/>
  <path d="M0,17.55l1.361,27.252.07,1.057h.027c1.148,10.846,12.347,19.193,26.052,19.193,14.346,0,25.829-9.027,26.143-20.525l1.347-26.977H0ZM27.511,62.827c-12.956,0-23.458-7.964-23.909-18.13l-.065-1.063h-.006l-1.191-23.859h50.322l-1.231,24.666c-.276,10.138-11.006,18.386-23.919,18.386Z" fill="#08a94b"/>
  <path d="M38.927,46.234c-5.008,4.672-11.427,7.908-11.427,7.908,0,0-6.419-3.236-11.426-7.908.893.025,1.772.224,2.436.612.893.521,2.038.781,3.183.781s2.291-.26,3.183-.781c1.422-.83,3.824-.829,5.246,0,.892.521,2.038.781,3.183.781s2.291-.26,3.184-.781c.665-.388,1.545-.587,2.437-.612ZM19.071,45.885c1.421.829,3.824.829,5.245,0,1.784-1.041,4.581-1.041,6.367,0,1.421.829,3.823.829,5.246,0,1.131-.66,2.666-.899,4.094-.722.39-.4.768-.808,1.126-1.224-1.431-.541-3.419-.449-4.66.275-.893.521-2.039.781-3.184.781s-2.291-.26-3.183-.781c-1.421-.829-3.824-.83-5.246,0-.893.521-2.038.781-3.183.781s-2.291-.26-3.183-.781c-1.241-.724-3.229-.815-4.66-.275.359.417.737.825,1.127,1.225,1.428-.176,2.963.063,4.094.722ZM44.755,35.636c-.121-4.771-4.026-8.601-8.825-8.601-3.959,0-7.309,2.606-8.429,6.196-1.12-3.59-4.47-6.196-8.429-6.196-4.8,0-8.705,3.83-8.826,8.601,0,.076-.003.152-.003.228s.002.152.003.228c.031,2.417,1.185,4.78,2.878,6.96,1.782-.823,4.294-.764,5.947.201,1.421.829,3.824.829,5.245,0,1.784-1.042,4.581-1.042,6.367,0,1.421.829,3.823.829,5.246,0,1.654-.965,4.166-1.024,5.948-.2,1.693-2.18,2.847-4.543,2.878-6.96.001-.076.003-.152.003-.228s-.002-.152-.003-.228Z" fill="#00a84b"/>
  <g>
    <path d="M8.399,8.826v7.997h-2.57l-2.283-4.391c-.12-.256-.223-.48-.311-.672-.239-.536-.367-.824-.382-.864l-.084-.192-.084-.192-.096-.18-.084-.192h-.048v.348l.048,1.739v4.595H1v-7.997h2.558l2.08,4.055.837,1.739.406.876h.048v-.168c0-.408-.006-.746-.018-1.014-.012-.268-.022-.562-.03-.882v-4.607h1.518Z" fill="#08a94b"/>
    <path d="M11.328,8.826v3.263h.717l2.642-3.263h1.889l-3.227,3.909,3.562,4.088h-1.936l-2.929-3.419h-.717v3.419h-1.53v-7.997h1.53Z" fill="#08a94b"/>
    <path d="M26.377,8.826v1.296l-4.399,5.362v.048h4.459v1.291h-6.371v-1.308l4.363-5.35v-.048h-4.172v-1.291h6.12Z" fill="#08a94b"/>
    <path d="M27.404,16.823v-7.997h3.921c.964,0,1.636.174,2.014.521.379.348.568.969.568,1.863,0,.807-.092,1.356-.275,1.648-.183.292-.57.493-1.159.605v.06c.454,0,.793.132,1.016.396.223.264.335.652.335,1.164v1.74h-1.542v-1.441c0-.472-.086-.794-.257-.967-.171-.172-.484-.258-.938-.258h-2.152v2.666h-1.53ZM28.934,12.855h2.14c.518,0,.861-.092,1.028-.276s.251-.552.251-1.105-.072-.912-.215-1.08c-.143-.168-.462-.252-.956-.252h-2.247v2.713Z" fill="#08a94b"/>
    <path d="M36.477,10.094v2.092h3.717v1.136h-3.717v2.235h3.956v1.267h-5.486v-7.997h5.451v1.267h-3.921Z" fill="#08a94b"/>
    <path d="M46.47,13.966h1.506v.275c0,.653-.052,1.132-.155,1.434-.104.303-.303.558-.598.765-.255.175-.548.291-.879.347-.331.056-.883.084-1.656.084-.797,0-1.355-.032-1.674-.096-.319-.064-.618-.203-.897-.418-.311-.247-.53-.572-.657-.974-.127-.402-.191-.982-.191-1.739v-1.422c0-.805.048-1.399.143-1.781.095-.383.284-.707.566-.974.282-.267.629-.448,1.042-.544.413-.096,1.095-.143,2.049-.143.611,0,1.04.02,1.286.06.246.04.486.131.721.275.234.143.425.349.572.616.147.267.22.572.22.914l.036.849h-1.518v-.203c0-.518-.094-.847-.281-.986-.187-.139-.632-.209-1.333-.209-.924,0-1.478.112-1.661.335-.183.223-.275.901-.275,2.032v1.327c0,.749.112,1.231.336,1.446s.732.323,1.523.323c.743,0,1.225-.078,1.445-.233.22-.155.33-.488.33-.998v-.359Z" fill="#08a94b"/>
    <path d="M50.319,10.094v2.092h3.717v1.136h-3.717v2.235h3.956v1.267h-5.486v-7.997h5.451v1.267h-3.921Z" fill="#08a94b"/>
  </g>
  <polygon points="46.716 7.309 46.465 6.782 44.828 7.443 43.19 6.782 42.939 7.309 44.828 8.423 46.716 7.309" fill="#08a94b"/>
</svg>